# xmcd CD database file generated by OrangeCD 4.3
#
# Track frame offsets:
#	182
#	12970
#	28732
#	43122
#	56232
#	69407
#	81595
#	92487
#	103205
#	116617
#	127332
#	139625
#	149997
#	162352
#	174942
#	185170
#	195372
#	207640
#	218817
#	230847
#	242412
#	253310
#	268152
#	282237
#	292670
#
# Disc length: 4032 seconds
#
# Revision: 0
# Processed by: cddbd v1.4PL0 Copyright (c) Steve Scherf et al.
# Submitted via: OrangeCD 4.3
#
DISCID=900fbe19
DTITLE=Various Artist - Street Corner Essentials Disc 1
DYEAR=2001
DGENRE=Blues
TTITLE0=Coronets - Nadine
TTITLE1=Counts - Darling Dear
TTITLE2=Moonglows - Sincerely
TTITLE3=Marigolds - Rolling Stone
TTITLE4=Flamingos - I'll Be Home
TTITLE5=Dell-Vikings - Come Go With Me
TTITLE6=Tune Weavers - Happy, Happy Birthday Baby
TTITLE7=Gladiolas - Little Darlin'
TTITLE8=Lee Andrews and The Hearts - Long Lonely Nights
TTITLE9=Monotones - Book Of Love
TTITLE10=Pastels - Been So Long
TTITLE11=Original Casuals - So Tough
TTITLE12=Crescendos - Oh Julie
TTITLE13=Norman Fox and The Rob Roys - Tell Me Why
TTITLE14=Shirelles - I Met Him On A Sunday
TTITLE15=Danleers - One Summer Night
TTITLE16=Elegants - Little Star
TTITLE17=Shields - You Cheated
TTITLE18=Platters - Smoke Gets In Your Eyes
TTITLE19=Impalas - (Sorry) I Ran All The Way Home
TTITLE20=Phil Phillips and The Twilights - Sea Of Love
TTITLE21=Demensions - Over The Rainbow
TTITLE22=Sensations - Let Me In
TTITLE23=Stereos - I Really Love You
TTITLE24=Quotations - Imagination
EXTD=
EXTT0=
EXTT1=
EXTT2=
EXTT3=
EXTT4=
EXTT5=
EXTT6=
EXTT7=
EXTT8=
EXTT9=
EXTT10=
EXTT11=
EXTT12=
EXTT13=
EXTT14=
EXTT15=
EXTT16=
EXTT17=
EXTT18=
EXTT19=
EXTT20=
EXTT21=
EXTT22=
EXTT23=
EXTT24=
PLAYORDER=
